<?xml version="1.0" encoding="UTF-8" standalone="no"?>
<!DOCTYPE svg PUBLIC "-//W3C//DTD SVG 1.1//EN"
 "http://www.w3.org/Graphics/SVG/1.1/DTD/svg11.dtd">
<!-- Generated by graphviz version 2.30.1 (20130221.2233)
 -->
<!-- Title: G Pages: 1 -->
<svg width="429pt" height="260pt"
 viewBox="0.00 0.00 429.00 260.00" xmlns="http://www.w3.org/2000/svg" xmlns:xlink="http://www.w3.org/1999/xlink">
<g id="graph0" class="graph" transform="scale(1 1) rotate(0) translate(4 256)">
<title>G</title>
<polygon fill="white" stroke="white" points="-4,5 -4,-256 426,-256 426,5 -4,5"/>
<!-- libtorc&#45;core -->
<g id="node1" class="node"><title>libtorc&#45;core</title>
<polygon fill="none" stroke="black" points="196,-252 114,-252 114,-216 196,-216 196,-252"/>
<text text-anchor="middle" x="155" y="-230.3" font-family="Times,serif" font-size="14.00">libtorc&#45;core</text>
</g>
<!-- libtorc&#45;audio -->
<g id="node2" class="node"><title>libtorc&#45;audio</title>
<polygon fill="none" stroke="black" points="199.25,-180 110.75,-180 110.75,-144 199.25,-144 199.25,-180"/>
<text text-anchor="middle" x="155" y="-158.3" font-family="Times,serif" font-size="14.00">libtorc&#45;audio</text>
</g>
<!-- libtorc&#45;core&#45;&gt;libtorc&#45;audio -->
<g id="edge1" class="edge"><title>libtorc&#45;core&#45;&gt;libtorc&#45;audio</title>
<path fill="none" stroke="black" d="M155,-215.697C155,-207.983 155,-198.712 155,-190.112"/>
<polygon fill="black" stroke="black" points="158.5,-190.104 155,-180.104 151.5,-190.104 158.5,-190.104"/>
</g>
<!-- libtorc&#45;baseui -->
<g id="node3" class="node"><title>libtorc&#45;baseui</title>
<polygon fill="none" stroke="black" points="421.25,-180 328.75,-180 328.75,-144 421.25,-144 421.25,-180"/>
<text text-anchor="middle" x="375" y="-158.3" font-family="Times,serif" font-size="14.00">libtorc&#45;baseui</text>
</g>
<!-- libtorc&#45;core&#45;&gt;libtorc&#45;baseui -->
<g id="edge2" class="edge"><title>libtorc&#45;core&#45;&gt;libtorc&#45;baseui</title>
<path fill="none" stroke="black" d="M196.122,-219.916C230.6,-208.945 280.184,-193.169 318.408,-181.007"/>
<polygon fill="black" stroke="black" points="319.896,-184.206 328.364,-177.839 317.773,-177.536 319.896,-184.206"/>
</g>
<!-- libtorc&#45;media -->
<g id="node4" class="node"><title>libtorc&#45;media</title>
<polygon fill="none" stroke="black" points="92,-180 0,-180 0,-144 92,-144 92,-180"/>
<text text-anchor="middle" x="46" y="-158.3" font-family="Times,serif" font-size="14.00">libtorc&#45;media</text>
</g>
<!-- libtorc&#45;core&#45;&gt;libtorc&#45;media -->
<g id="edge3" class="edge"><title>libtorc&#45;core&#45;&gt;libtorc&#45;media</title>
<path fill="none" stroke="black" d="M128.336,-215.876C114.216,-206.808 96.6886,-195.552 81.4393,-185.759"/>
<polygon fill="black" stroke="black" points="83.0725,-182.648 72.7669,-180.19 79.2899,-188.538 83.0725,-182.648"/>
</g>
<!-- libtorc&#45;video -->
<g id="node6" class="node"><title>libtorc&#45;video</title>
<polygon fill="none" stroke="black" points="209.25,-108 120.75,-108 120.75,-72 209.25,-72 209.25,-108"/>
<text text-anchor="middle" x="165" y="-86.3" font-family="Times,serif" font-size="14.00">libtorc&#45;video</text>
</g>
<!-- libtorc&#45;audio&#45;&gt;libtorc&#45;video -->
<g id="edge7" class="edge"><title>libtorc&#45;audio&#45;&gt;libtorc&#45;video</title>
<path fill="none" stroke="black" d="M157.472,-143.697C158.574,-135.983 159.898,-126.712 161.127,-118.112"/>
<polygon fill="black" stroke="black" points="164.607,-118.499 162.557,-108.104 157.677,-117.509 164.607,-118.499"/>
</g>
<!-- libtorc&#45;videoui -->
<g id="node5" class="node"><title>libtorc&#45;videoui</title>
<polygon fill="none" stroke="black" points="320,-36 220,-36 220,-0 320,-0 320,-36"/>
<text text-anchor="middle" x="270" y="-14.3" font-family="Times,serif" font-size="14.00">libtorc&#45;videoui</text>
</g>
<!-- libtorc&#45;baseui&#45;&gt;libtorc&#45;videoui -->
<g id="edge4" class="edge"><title>libtorc&#45;baseui&#45;&gt;libtorc&#45;videoui</title>
<path fill="none" stroke="black" d="M375.212,-143.68C374.62,-124.49 371.119,-93.4307 356,-72 347.128,-59.4248 334.234,-49.2434 321.117,-41.2921"/>
<polygon fill="black" stroke="black" points="322.472,-38.0363 312.048,-36.1417 319.015,-44.1233 322.472,-38.0363"/>
</g>
<!-- libtorc&#45;tenfootui -->
<g id="node7" class="node"><title>libtorc&#45;tenfootui</title>
<polygon fill="none" stroke="black" points="347,-108 239,-108 239,-72 347,-72 347,-108"/>
<text text-anchor="middle" x="293" y="-86.3" font-family="Times,serif" font-size="14.00">libtorc&#45;tenfootui</text>
</g>
<!-- libtorc&#45;baseui&#45;&gt;libtorc&#45;tenfootui -->
<g id="edge6" class="edge"><title>libtorc&#45;baseui&#45;&gt;libtorc&#45;tenfootui</title>
<path fill="none" stroke="black" d="M354.73,-143.697C344.502,-134.965 331.939,-124.24 320.822,-114.75"/>
<polygon fill="black" stroke="black" points="322.915,-111.935 313.037,-108.104 318.37,-117.259 322.915,-111.935"/>
</g>
<!-- libtorc&#45;video&#45;&gt;libtorc&#45;videoui -->
<g id="edge5" class="edge"><title>libtorc&#45;video&#45;&gt;libtorc&#45;videoui</title>
<path fill="none" stroke="black" d="M190.686,-71.8761C204.288,-62.8083 221.172,-51.5523 235.861,-41.7592"/>
<polygon fill="black" stroke="black" points="237.836,-44.649 244.215,-36.1898 233.953,-38.8246 237.836,-44.649"/>
</g>
<!-- libtorc&#45;av -->
<g id="node8" class="node"><title>libtorc&#45;av</title>
<g id="a_node8"><a xlink:href="../html/modules.html" xlink:title="libtorc&#45;av">
<ellipse fill="#e5e5e5" stroke="black" cx="264" cy="-162" rx="46.2191" ry="18"/>
<text text-anchor="middle" x="264" y="-158.3" font-family="Times,serif" font-size="14.00">libtorc&#45;av</text>
</a>
</g>
</g>
<!-- libtorc&#45;av&#45;&gt;libtorc&#45;audio -->
<g id="edge8" class="edge"><title>libtorc&#45;av&#45;&gt;libtorc&#45;audio</title>
<path fill="none" stroke="black" d="M217.736,-162C214.949,-162 212.161,-162 209.374,-162"/>
<polygon fill="black" stroke="black" points="209.281,-158.5 199.281,-162 209.281,-165.5 209.281,-158.5"/>
</g>
</g>
</svg>
