<?xml version="1.0" encoding="UTF-8" standalone="no"?>
<!DOCTYPE svg PUBLIC "-//W3C//DTD SVG 1.1//EN"
 "http://www.w3.org/Graphics/SVG/1.1/DTD/svg11.dtd">
<!-- Generated by graphviz version 2.30.1 (20130626.2023)
 -->
<!-- Title: G Pages: 1 -->
<svg width="1218pt" height="263pt"
 viewBox="0.00 0.00 1218.00 263.00" xmlns="http://www.w3.org/2000/svg" xmlns:xlink="http://www.w3.org/1999/xlink">
<g id="graph0" class="graph" transform="scale(1 1) rotate(0) translate(4 259)">
<title>G</title>
<polygon fill="white" stroke="white" points="-4,5 -4,-259 1215,-259 1215,5 -4,5"/>
<g id="clust2" class="cluster"><title>cluster_1</title>
<polygon fill="#cccccc" stroke="black" points="1070,-89 1070,-218 1202,-218 1202,-89 1070,-89"/>
<text text-anchor="middle" x="1136" y="-202.8" font-family="Times,serif" font-size="14.00">Result</text>
</g>
<g id="clust1" class="cluster"><title>cluster_0</title>
<polygon fill="#cccccc" stroke="black" points="8,-64 8,-247 146,-247 146,-64 8,-64"/>
<text text-anchor="middle" x="77" y="-231.8" font-family="Times,serif" font-size="14.00">Source</text>
</g>
<!-- Bonjour/ZeroConf -->
<g id="node1" class="node"><title>Bonjour/ZeroConf</title>
<polygon fill="none" stroke="black" points="137.5,-162 16.5,-162 16.5,-126 137.5,-126 137.5,-162"/>
<text text-anchor="middle" x="77" y="-140.3" font-family="Times,serif" font-size="14.00">Bonjour/ZeroConf</text>
</g>
<!-- New peer? -->
<g id="node6" class="node"><title>New peer?</title>
<polygon fill="none" stroke="black" points="253.5,-184 176.5,-184 176.5,-148 253.5,-148 253.5,-184"/>
<text text-anchor="middle" x="215" y="-162.3" font-family="Times,serif" font-size="14.00">New peer?</text>
</g>
<!-- Bonjour/ZeroConf&#45;&gt;New peer? -->
<g id="edge1" class="edge"><title>Bonjour/ZeroConf&#45;&gt;New peer?</title>
<path fill="none" stroke="black" d="M137.652,-153.65C147.193,-155.193 156.957,-156.772 166.177,-158.264"/>
<polygon fill="black" stroke="black" points="165.883,-161.762 176.314,-159.904 167.001,-154.852 165.883,-161.762"/>
</g>
<!-- UPnP/SSDP -->
<g id="node2" class="node"><title>UPnP/SSDP</title>
<polygon fill="none" stroke="black" points="120.5,-216 33.5,-216 33.5,-180 120.5,-180 120.5,-216"/>
<text text-anchor="middle" x="77" y="-194.3" font-family="Times,serif" font-size="14.00">UPnP/SSDP</text>
</g>
<!-- UPnP/SSDP&#45;&gt;New peer? -->
<g id="edge2" class="edge"><title>UPnP/SSDP&#45;&gt;New peer?</title>
<path fill="none" stroke="black" d="M120.658,-187.963C135.089,-184.567 151.297,-180.754 166.106,-177.269"/>
<polygon fill="black" stroke="black" points="167.164,-180.616 176.097,-174.918 165.561,-173.802 167.164,-180.616"/>
</g>
<!-- HTTP Socket -->
<g id="node3" class="node"><title>HTTP Socket</title>
<polygon fill="none" stroke="black" points="123.5,-108 30.5,-108 30.5,-72 123.5,-72 123.5,-108"/>
<text text-anchor="middle" x="77" y="-86.3" font-family="Times,serif" font-size="14.00">HTTP Socket</text>
</g>
<!-- New peer?  -->
<g id="node12" class="node"><title>New peer? </title>
<polygon fill="none" stroke="black" points="393,-108 313,-108 313,-72 393,-72 393,-108"/>
<text text-anchor="middle" x="353" y="-86.3" font-family="Times,serif" font-size="14.00">New peer? </text>
</g>
<!-- HTTP Socket&#45;&gt;New peer?  -->
<g id="edge12" class="edge"><title>HTTP Socket&#45;&gt;New peer? </title>
<path fill="none" stroke="black" d="M123.553,-90C173.096,-90 252.003,-90 302.898,-90"/>
<polygon fill="black" stroke="black" points="302.999,-93.5001 312.999,-90 302.999,-86.5001 302.999,-93.5001"/>
</g>
<!-- WebSocket ready -->
<g id="node4" class="node"><title>WebSocket ready</title>
<polygon fill="none" stroke="black" points="1194,-133 1078,-133 1078,-97 1194,-97 1194,-133"/>
<text text-anchor="middle" x="1136" y="-111.3" font-family="Times,serif" font-size="14.00">WebSocket ready</text>
</g>
<!-- Do nothing -->
<g id="node5" class="node"><title>Do nothing</title>
<polygon fill="none" stroke="black" points="1176,-187 1096,-187 1096,-151 1176,-151 1176,-187"/>
<text text-anchor="middle" x="1136" y="-165.3" font-family="Times,serif" font-size="14.00">Do nothing</text>
</g>
<!-- Create peer -->
<g id="node7" class="node"><title>Create peer</title>
<polygon fill="none" stroke="black" points="393.5,-177 312.5,-177 312.5,-141 393.5,-141 393.5,-177"/>
<text text-anchor="middle" x="353" y="-155.3" font-family="Times,serif" font-size="14.00">Create peer</text>
</g>
<!-- New peer?&#45;&gt;Create peer -->
<g id="edge3" class="edge"><title>New peer?&#45;&gt;Create peer</title>
<path fill="none" stroke="black" d="M253.523,-164.069C268.486,-163.299 285.931,-162.401 301.946,-161.576"/>
<polygon fill="black" stroke="black" points="302.416,-165.057 312.223,-161.047 302.056,-158.066 302.416,-165.057"/>
<text text-anchor="middle" x="283" y="-166.8" font-family="Times,serif" font-size="14.00">Yes</text>
</g>
<!-- New peer?&#45;&gt;Do nothing -->
<g id="edge4" class="edge"><title>New peer?&#45;&gt;Do nothing</title>
<path fill="none" stroke="black" d="M253.776,-183.864C280.573,-194.913 317.722,-207 352,-207 352,-207 352,-207 980,-207 1016.22,-207 1055.86,-197.092 1085.99,-187.394"/>
<polygon fill="black" stroke="black" points="1087.44,-190.601 1095.83,-184.128 1085.23,-183.958 1087.44,-190.601"/>
<text text-anchor="middle" x="664" y="-210.8" font-family="Times,serif" font-size="14.00">No</text>
</g>
<!-- Enough details? -->
<g id="node8" class="node"><title>Enough details?</title>
<polygon fill="none" stroke="black" points="558,-174 452,-174 452,-138 558,-138 558,-174"/>
<text text-anchor="middle" x="505" y="-152.3" font-family="Times,serif" font-size="14.00">Enough details?</text>
</g>
<!-- Create peer&#45;&gt;Enough details? -->
<g id="edge5" class="edge"><title>Create peer&#45;&gt;Enough details?</title>
<path fill="none" stroke="black" d="M393.803,-158.204C408.399,-157.912 425.294,-157.574 441.405,-157.252"/>
<polygon fill="black" stroke="black" points="441.918,-160.742 451.846,-157.043 441.778,-153.744 441.918,-160.742"/>
</g>
<!-- Lower priority? -->
<g id="node9" class="node"><title>Lower priority?</title>
<polygon fill="none" stroke="black" points="861.5,-158 756.5,-158 756.5,-122 861.5,-122 861.5,-158"/>
<text text-anchor="middle" x="809" y="-136.3" font-family="Times,serif" font-size="14.00">Lower priority?</text>
</g>
<!-- Enough details?&#45;&gt;Lower priority? -->
<g id="edge6" class="edge"><title>Enough details?&#45;&gt;Lower priority?</title>
<path fill="none" stroke="black" d="M558.26,-153.231C610.547,-150.461 690.964,-146.201 746.343,-143.267"/>
<polygon fill="black" stroke="black" points="746.579,-146.759 756.38,-142.735 746.209,-139.769 746.579,-146.759"/>
<text text-anchor="middle" x="664" y="-154.8" font-family="Times,serif" font-size="14.00">Yes</text>
</g>
<!-- HTTP call -->
<g id="node11" class="node"><title>HTTP call</title>
<polygon fill="none" stroke="black" points="701.5,-120 626.5,-120 626.5,-84 701.5,-84 701.5,-120"/>
<text text-anchor="middle" x="664" y="-98.3" font-family="Times,serif" font-size="14.00">HTTP call</text>
</g>
<!-- Enough details?&#45;&gt;HTTP call -->
<g id="edge9" class="edge"><title>Enough details?&#45;&gt;HTTP call</title>
<path fill="none" stroke="black" d="M547.529,-137.891C556.822,-134.093 566.687,-130.256 576,-127 589.004,-122.454 603.303,-118.09 616.485,-114.317"/>
<polygon fill="black" stroke="black" points="617.63,-117.631 626.308,-111.553 615.734,-110.892 617.63,-117.631"/>
<text text-anchor="middle" x="585" y="-130.8" font-family="Times,serif" font-size="14.00">No</text>
</g>
<!-- Create WebSocket -->
<g id="node10" class="node"><title>Create WebSocket</title>
<polygon fill="none" stroke="black" points="1039.5,-141 918.5,-141 918.5,-105 1039.5,-105 1039.5,-141"/>
<text text-anchor="middle" x="979" y="-119.3" font-family="Times,serif" font-size="14.00">Create WebSocket</text>
</g>
<!-- Lower priority?&#45;&gt;Create WebSocket -->
<g id="edge7" class="edge"><title>Lower priority?&#45;&gt;Create WebSocket</title>
<path fill="none" stroke="black" d="M861.776,-134.761C876.487,-133.272 892.751,-131.626 908.336,-130.049"/>
<polygon fill="black" stroke="black" points="908.86,-133.514 918.457,-129.025 908.156,-126.55 908.86,-133.514"/>
</g>
<!-- Lower priority?&#45;&gt;Do nothing -->
<g id="edge11" class="edge"><title>Lower priority?&#45;&gt;Do nothing</title>
<path fill="none" stroke="black" d="M861.634,-144.834C879.486,-146.491 899.621,-148.345 918,-150 975.535,-155.182 1041.67,-160.945 1085.66,-164.75"/>
<polygon fill="black" stroke="black" points="1085.53,-168.252 1095.79,-165.626 1086.13,-161.278 1085.53,-168.252"/>
</g>
<!-- Create WebSocket&#45;&gt;WebSocket ready -->
<g id="edge8" class="edge"><title>Create WebSocket&#45;&gt;WebSocket ready</title>
<path fill="none" stroke="black" d="M1039.93,-119.907C1048.96,-119.441 1058.34,-118.957 1067.52,-118.483"/>
<polygon fill="black" stroke="black" points="1067.97,-121.964 1077.78,-117.953 1067.61,-114.974 1067.97,-121.964"/>
</g>
<!-- HTTP call&#45;&gt;Lower priority? -->
<g id="edge10" class="edge"><title>HTTP call&#45;&gt;Lower priority?</title>
<path fill="none" stroke="black" d="M701.826,-111.786C715.471,-115.412 731.338,-119.628 746.582,-123.679"/>
<polygon fill="black" stroke="black" points="745.916,-127.124 756.479,-126.309 747.714,-120.358 745.916,-127.124"/>
</g>
<!-- Upgrade socket -->
<g id="node13" class="node"><title>Upgrade socket</title>
<polygon fill="none" stroke="black" points="716,-64 612,-64 612,-28 716,-28 716,-64"/>
<text text-anchor="middle" x="664" y="-42.3" font-family="Times,serif" font-size="14.00">Upgrade socket</text>
</g>
<!-- New peer? &#45;&gt;Upgrade socket -->
<g id="edge13" class="edge"><title>New peer? &#45;&gt;Upgrade socket</title>
<path fill="none" stroke="black" d="M393.235,-72.3758C410.837,-65.3152 432.084,-57.933 452,-54 501.67,-44.1912 559.16,-42.6376 601.575,-43.2868"/>
<polygon fill="black" stroke="black" points="601.679,-46.7895 611.747,-43.4889 601.818,-39.7908 601.679,-46.7895"/>
<text text-anchor="middle" x="505" y="-57.8" font-family="Times,serif" font-size="14.00">No</text>
</g>
<!-- Create peer  -->
<g id="node14" class="node"><title>Create peer </title>
<polygon fill="none" stroke="black" points="547,-114 463,-114 463,-78 547,-78 547,-114"/>
<text text-anchor="middle" x="505" y="-92.3" font-family="Times,serif" font-size="14.00">Create peer </text>
</g>
<!-- New peer? &#45;&gt;Create peer  -->
<g id="edge14" class="edge"><title>New peer? &#45;&gt;Create peer </title>
<path fill="none" stroke="black" d="M393.019,-91.5608C411.194,-92.2877 433.063,-93.1625 452.565,-93.9426"/>
<polygon fill="black" stroke="black" points="452.684,-97.4501 462.816,-94.3526 452.964,-90.4557 452.684,-97.4501"/>
<text text-anchor="middle" x="423" y="-97.8" font-family="Times,serif" font-size="14.00">Yes</text>
</g>
<!-- Enough details?  -->
<g id="node15" class="node"><title>Enough details? </title>
<polygon fill="none" stroke="black" points="864,-64 754,-64 754,-28 864,-28 864,-64"/>
<text text-anchor="middle" x="809" y="-42.3" font-family="Times,serif" font-size="14.00">Enough details? </text>
</g>
<!-- Upgrade socket&#45;&gt;Enough details?  -->
<g id="edge16" class="edge"><title>Upgrade socket&#45;&gt;Enough details? </title>
<path fill="none" stroke="black" d="M716.222,-46C725.073,-46 734.375,-46 743.523,-46"/>
<polygon fill="black" stroke="black" points="743.753,-49.5001 753.753,-46 743.753,-42.5001 743.753,-49.5001"/>
</g>
<!-- Create peer &#45;&gt;Upgrade socket -->
<g id="edge15" class="edge"><title>Create peer &#45;&gt;Upgrade socket</title>
<path fill="none" stroke="black" d="M547.25,-82.8631C564.038,-77.5164 583.786,-71.2274 602.17,-65.3726"/>
<polygon fill="black" stroke="black" points="603.459,-68.6355 611.925,-62.266 601.334,-61.9656 603.459,-68.6355"/>
</g>
<!-- JSON&#45;RPC call -->
<g id="node16" class="node"><title>JSON&#45;RPC call</title>
<polygon fill="none" stroke="black" points="1031.5,-36 926.5,-36 926.5,-0 1031.5,-0 1031.5,-36"/>
<text text-anchor="middle" x="979" y="-14.3" font-family="Times,serif" font-size="14.00">JSON&#45;RPC call</text>
</g>
<!-- Enough details? &#45;&gt;JSON&#45;RPC call -->
<g id="edge17" class="edge"><title>Enough details? &#45;&gt;JSON&#45;RPC call</title>
<path fill="none" stroke="black" d="M864.081,-36.9865C880.759,-34.2068 899.248,-31.1254 916.393,-28.2678"/>
<polygon fill="black" stroke="black" points="917.021,-31.7115 926.31,-26.6151 915.87,-24.8068 917.021,-31.7115"/>
<text text-anchor="middle" x="891" y="-37.8" font-family="Times,serif" font-size="14.00">No</text>
</g>
<!-- Enough details? &#45;&gt;WebSocket ready -->
<g id="edge19" class="edge"><title>Enough details? &#45;&gt;WebSocket ready</title>
<path fill="none" stroke="black" d="M864.028,-51.2455C911.012,-56.5108 980.671,-66.018 1040,-81 1053.26,-84.3494 1067.28,-88.8193 1080.34,-93.4143"/>
<polygon fill="black" stroke="black" points="1079.53,-96.8419 1090.13,-96.9361 1081.9,-90.2557 1079.53,-96.8419"/>
<text text-anchor="middle" x="979" y="-84.8" font-family="Times,serif" font-size="14.00">Yes</text>
</g>
<!-- JSON&#45;RPC call&#45;&gt;WebSocket ready -->
<g id="edge18" class="edge"><title>JSON&#45;RPC call&#45;&gt;WebSocket ready</title>
<path fill="none" stroke="black" d="M1019.86,-36.1123C1032.93,-42.5281 1047.34,-50.1225 1060,-58 1075.64,-67.7334 1092.03,-79.9348 1105.49,-90.5488"/>
<polygon fill="black" stroke="black" points="1103.46,-93.4074 1113.46,-96.9161 1107.83,-87.939 1103.46,-93.4074"/>
</g>
</g>
</svg>
