<?xml version="1.0" encoding="UTF-8" standalone="no"?>
<!DOCTYPE svg PUBLIC "-//W3C//DTD SVG 1.1//EN"
 "http://www.w3.org/Graphics/SVG/1.1/DTD/svg11.dtd">
<!-- Generated by graphviz version 2.30.1 (20130221.2233)
 -->
<!-- Title: G Pages: 1 -->
<svg width="1410pt" height="1133pt"
 viewBox="0.00 0.00 1410.00 1133.00" xmlns="http://www.w3.org/2000/svg" xmlns:xlink="http://www.w3.org/1999/xlink">
<g id="graph0" class="graph" transform="scale(1 1) rotate(0) translate(4 1129)">
<title>G</title>
<polygon fill="white" stroke="white" points="-4,5 -4,-1129 1407,-1129 1407,5 -4,5"/>
<g id="clust5" class="cluster"><title>cluster_1a</title>
<polygon fill="#e5e5e5" stroke="black" points="508,-174 508,-249 832,-249 832,-174 508,-174"/>
<text text-anchor="middle" x="670" y="-233.8" font-family="Times,serif" font-size="14.00">&#39;QRunnable&#39;</text>
</g>
<g id="clust11" class="cluster"><title>cluster_7</title>
<polygon fill="#d9d9d9" stroke="black" points="990,-776 990,-851 1132,-851 1132,-776 990,-776"/>
<text text-anchor="middle" x="1061" y="-835.8" font-family="Times,serif" font-size="14.00">&#39;SubtitleDecode&#39;</text>
</g>
<g id="clust6" class="cluster"><title>cluster_2</title>
<polygon fill="#b3b3b3" stroke="black" points="338,-91 338,-166 653,-166 653,-91 338,-91"/>
<text text-anchor="middle" x="495.5" y="-150.8" font-family="Times,serif" font-size="14.00">&#39;MediaLoop&#39;</text>
</g>
<g id="clust3" class="cluster"><title>cluster_0b</title>
<polygon fill="#e5e5e5" stroke="black" points="338,-581 338,-764 472,-764 472,-581 338,-581"/>
<text text-anchor="middle" x="405" y="-748.8" font-family="Times,serif" font-size="14.00">&#39;QRunnable&#39;</text>
</g>
<g id="clust4" class="cluster"><title>cluster_1</title>
<polygon fill="none" stroke="black" points="164,-174 164,-573 488,-573 488,-174 164,-174"/>
<text text-anchor="middle" x="326" y="-557.8" font-family="Times,serif" font-size="14.00">&#39;AdminLoop&#39;</text>
</g>
<g id="clust10" class="cluster"><title>cluster_6</title>
<polygon fill="#a6a6a6" stroke="black" points="994,-859 994,-934 1265,-934 1265,-859 994,-859"/>
<text text-anchor="middle" x="1129.5" y="-918.8" font-family="Times,serif" font-size="14.00">&#39;VideoDecode&#39;</text>
</g>
<g id="clust8" class="cluster"><title>cluster_4</title>
<polygon fill="#bfbfbf" stroke="black" points="686,-859 686,-934 970,-934 970,-859 686,-859"/>
<text text-anchor="middle" x="828" y="-918.8" font-family="Times,serif" font-size="14.00">&#39;Demuxer&#39;</text>
</g>
<g id="clust7" class="cluster"><title>cluster_3</title>
<polygon fill="#d9d9d9" stroke="black" points="339,-8 339,-83 633,-83 633,-8 339,-8"/>
<text text-anchor="middle" x="486" y="-67.8" font-family="Times,serif" font-size="14.00">&#39;SSDP&#39;</text>
</g>
<g id="clust1" class="cluster"><title>cluster_0</title>
<polygon fill="#cccccc" stroke="black" points="8,-772 8,-1117 665,-1117 665,-772 8,-772"/>
<text text-anchor="middle" x="336.5" y="-1101.8" font-family="Times,serif" font-size="14.00">&#39;MainLoop&#39;</text>
</g>
<g id="clust2" class="cluster"><title>cluster_0a</title>
<polygon fill="#cccccc" stroke="black" points="361,-859 361,-1042 657,-1042 657,-859 361,-859"/>
<text text-anchor="middle" x="509" y="-1026.8" font-family="Times,serif" font-size="14.00">Simplified</text>
</g>
<g id="clust9" class="cluster"><title>cluster_5</title>
<polygon fill="#f2f2f2" stroke="black" points="994,-942 994,-1017 1394,-1017 1394,-942 994,-942"/>
<text text-anchor="middle" x="1194" y="-1001.8" font-family="Times,serif" font-size="14.00">&#39;AudioDecode&#39;</text>
</g>
<!-- TorcLocalContext -->
<g id="node1" class="node"><title>TorcLocalContext</title>
<polygon fill="none" stroke="black" points="135.5,-1032 16.5,-1032 16.5,-996 135.5,-996 135.5,-1032"/>
<text text-anchor="middle" x="76" y="-1010.3" font-family="Times,serif" font-size="14.00">TorcLocalContext</text>
</g>
<!-- Settings -->
<g id="node2" class="node"><title>Settings</title>
<polygon fill="none" stroke="black" points="264,-1086 202,-1086 202,-1050 264,-1050 264,-1086"/>
<text text-anchor="middle" x="233" y="-1064.3" font-family="Times,serif" font-size="14.00">Settings</text>
</g>
<!-- TorcLocalContext&#45;&gt;Settings -->
<g id="edge1" class="edge"><title>TorcLocalContext&#45;&gt;Settings</title>
<path fill="none" stroke="black" d="M129.044,-1032.13C149.565,-1039.28 172.764,-1047.36 191.939,-1054.04"/>
<polygon fill="black" stroke="black" points="190.969,-1057.41 201.563,-1057.4 193.272,-1050.8 190.969,-1057.41"/>
</g>
<!-- Preferences -->
<g id="node3" class="node"><title>Preferences</title>
<polygon fill="none" stroke="black" points="274,-1032 192,-1032 192,-996 274,-996 274,-1032"/>
<text text-anchor="middle" x="233" y="-1010.3" font-family="Times,serif" font-size="14.00">Preferences</text>
</g>
<!-- TorcLocalContext&#45;&gt;Preferences -->
<g id="edge2" class="edge"><title>TorcLocalContext&#45;&gt;Preferences</title>
<path fill="none" stroke="black" d="M135.599,-1014C150.638,-1014 166.688,-1014 181.291,-1014"/>
<polygon fill="black" stroke="black" points="181.633,-1017.5 191.633,-1014 181.633,-1010.5 181.633,-1017.5"/>
</g>
<!-- TorcAdminThread -->
<g id="node17" class="node"><title>TorcAdminThread</title>
<polygon fill="none" stroke="black" points="293.5,-353 172.5,-353 172.5,-317 293.5,-317 293.5,-353"/>
<text text-anchor="middle" x="233" y="-331.3" font-family="Times,serif" font-size="14.00">TorcAdminThread</text>
</g>
<!-- TorcLocalContext&#45;&gt;TorcAdminThread -->
<g id="edge27" class="edge"><title>TorcLocalContext&#45;&gt;TorcAdminThread</title>
<path fill="none" stroke="black" d="M89.447,-995.767C103.034,-974.976 124.397,-939.515 136,-906 154.043,-853.882 211.703,-471.482 227.794,-363.389"/>
<polygon fill="black" stroke="black" points="231.293,-363.653 229.302,-353.247 224.369,-362.624 231.293,-363.653"/>
</g>
<!-- TorcDB -->
<g id="node4" class="node"><title>TorcDB</title>
<polygon fill="none" stroke="black" points="436,-1086 374,-1086 374,-1050 436,-1050 436,-1086"/>
<text text-anchor="middle" x="405" y="-1064.3" font-family="Times,serif" font-size="14.00">TorcDB</text>
</g>
<!-- Settings&#45;&gt;TorcDB -->
<g id="edge3" class="edge"><title>Settings&#45;&gt;TorcDB</title>
<path fill="none" stroke="black" d="M264.001,-1068C291.628,-1068 332.838,-1068 363.4,-1068"/>
<polygon fill="black" stroke="black" points="363.727,-1071.5 373.727,-1068 363.727,-1064.5 363.727,-1071.5"/>
</g>
<!-- Preferences&#45;&gt;TorcDB -->
<g id="edge4" class="edge"><title>Preferences&#45;&gt;TorcDB</title>
<path fill="none" stroke="black" d="M274.074,-1027.68C291.253,-1033.46 311.569,-1040.19 330,-1046 340.961,-1049.46 352.882,-1053.06 363.89,-1056.34"/>
<polygon fill="black" stroke="black" points="363.106,-1059.75 373.688,-1059.23 365.091,-1053.04 363.106,-1059.75"/>
</g>
<!-- UIWindow -->
<g id="node5" class="node"><title>UIWindow</title>
<polygon fill="none" stroke="black" points="115.5,-897 36.5,-897 36.5,-861 115.5,-861 115.5,-897"/>
<text text-anchor="middle" x="76" y="-875.3" font-family="Times,serif" font-size="14.00">UIWindow</text>
</g>
<!-- UIImageTracker -->
<g id="node6" class="node"><title>UIImageTracker</title>
<polygon fill="none" stroke="black" points="288,-924 178,-924 178,-888 288,-888 288,-924"/>
<text text-anchor="middle" x="233" y="-902.3" font-family="Times,serif" font-size="14.00">UIImageTracker</text>
</g>
<!-- UIWindow&#45;&gt;UIImageTracker -->
<g id="edge5" class="edge"><title>UIWindow&#45;&gt;UIImageTracker</title>
<path fill="none" stroke="black" d="M115.713,-885.744C131.379,-888.472 149.894,-891.698 167.489,-894.763"/>
<polygon fill="black" stroke="black" points="167.262,-898.276 177.715,-896.544 168.464,-891.38 167.262,-898.276"/>
</g>
<!-- UITheme -->
<g id="node7" class="node"><title>UITheme</title>
<polygon fill="none" stroke="black" points="268,-978 198,-978 198,-942 268,-942 268,-978"/>
<text text-anchor="middle" x="233" y="-956.3" font-family="Times,serif" font-size="14.00">UITheme</text>
</g>
<!-- UIWindow&#45;&gt;UITheme -->
<g id="edge6" class="edge"><title>UIWindow&#45;&gt;UITheme</title>
<path fill="none" stroke="black" d="M103.329,-897.051C120.228,-908.201 142.885,-922.361 164,-933 171.746,-936.903 180.197,-940.644 188.426,-944.033"/>
<polygon fill="black" stroke="black" points="187.345,-947.37 197.93,-947.838 189.947,-940.872 187.345,-947.37"/>
</g>
<!-- UIActions -->
<g id="node12" class="node"><title>UIActions</title>
<polygon fill="none" stroke="black" points="270.5,-816 195.5,-816 195.5,-780 270.5,-780 270.5,-816"/>
<text text-anchor="middle" x="233" y="-794.3" font-family="Times,serif" font-size="14.00">UIActions</text>
</g>
<!-- UIWindow&#45;&gt;UIActions -->
<g id="edge11" class="edge"><title>UIWindow&#45;&gt;UIActions</title>
<path fill="none" stroke="black" d="M103.329,-860.949C120.228,-849.799 142.885,-835.639 164,-825 171.019,-821.463 178.617,-818.059 186.105,-814.93"/>
<polygon fill="black" stroke="black" points="187.53,-818.129 195.478,-811.124 184.896,-811.643 187.53,-818.129"/>
</g>
<!-- UIDisplay -->
<g id="node13" class="node"><title>UIDisplay</title>
<polygon fill="none" stroke="black" points="270.5,-870 195.5,-870 195.5,-834 270.5,-834 270.5,-870"/>
<text text-anchor="middle" x="233" y="-848.3" font-family="Times,serif" font-size="14.00">UIDisplay</text>
</g>
<!-- UIWindow&#45;&gt;UIDisplay -->
<g id="edge12" class="edge"><title>UIWindow&#45;&gt;UIDisplay</title>
<path fill="none" stroke="black" d="M115.713,-872.256C136.864,-868.572 163.207,-863.983 185.469,-860.105"/>
<polygon fill="black" stroke="black" points="186.127,-863.544 195.378,-858.379 184.925,-856.647 186.127,-863.544"/>
</g>
<!-- UIShapeRenderer -->
<g id="node14" class="node"><title>UIShapeRenderer</title>
<polygon fill="none" stroke="black" points="463.5,-679 346.5,-679 346.5,-643 463.5,-643 463.5,-679"/>
<text text-anchor="middle" x="405" y="-657.3" font-family="Times,serif" font-size="14.00">UIShapeRenderer</text>
</g>
<!-- UIImageTracker&#45;&gt;UIShapeRenderer -->
<g id="edge35" class="edge"><title>UIImageTracker&#45;&gt;UIShapeRenderer</title>
<path fill="none" stroke="black" d="M284.861,-887.819C288.273,-885.245 291.385,-882.32 294,-879 347.448,-811.136 274.111,-753.868 330,-688 332.327,-685.258 334.956,-682.794 337.802,-680.581"/>
<polygon fill="black" stroke="black" points="339.887,-683.399 346.321,-674.981 336.042,-677.549 339.887,-683.399"/>
</g>
<!-- UITextRenderer -->
<g id="node15" class="node"><title>UITextRenderer</title>
<polygon fill="none" stroke="black" points="459,-625 351,-625 351,-589 459,-589 459,-625"/>
<text text-anchor="middle" x="405" y="-603.3" font-family="Times,serif" font-size="14.00">UITextRenderer</text>
</g>
<!-- UIImageTracker&#45;&gt;UITextRenderer -->
<g id="edge36" class="edge"><title>UIImageTracker&#45;&gt;UITextRenderer</title>
<path fill="none" stroke="black" d="M285.009,-887.933C288.388,-885.334 291.453,-882.372 294,-879 360.335,-791.18 260.504,-719.341 330,-634 333.368,-629.864 337.427,-626.362 341.889,-623.396"/>
<polygon fill="black" stroke="black" points="343.892,-626.285 350.889,-618.329 340.458,-620.185 343.892,-626.285"/>
</g>
<!-- UIImageLoader -->
<g id="node16" class="node"><title>UIImageLoader</title>
<polygon fill="none" stroke="black" points="458,-733 352,-733 352,-697 458,-697 458,-733"/>
<text text-anchor="middle" x="405" y="-711.3" font-family="Times,serif" font-size="14.00">UIImageLoader</text>
</g>
<!-- UIImageTracker&#45;&gt;UIImageLoader -->
<g id="edge37" class="edge"><title>UIImageTracker&#45;&gt;UIImageLoader</title>
<path fill="none" stroke="black" d="M281.087,-887.97C285.673,-885.302 290.073,-882.317 294,-879 339.724,-840.376 374.243,-778.158 391.574,-742.491"/>
<polygon fill="black" stroke="black" points="394.869,-743.711 396.001,-733.177 388.547,-740.706 394.869,-743.711"/>
</g>
<!-- UIWidget -->
<g id="node8" class="node"><title>UIWidget</title>
<polygon fill="none" stroke="black" points="441,-967 369,-967 369,-931 441,-931 441,-967"/>
<text text-anchor="middle" x="405" y="-945.3" font-family="Times,serif" font-size="14.00">UIWidget</text>
</g>
<!-- UITheme&#45;&gt;UIWidget -->
<g id="edge7" class="edge"><title>UITheme&#45;&gt;UIWidget</title>
<path fill="none" stroke="black" d="M268.402,-957.774C294.411,-956.091 330.358,-953.765 358.705,-951.931"/>
<polygon fill="black" stroke="black" points="359.02,-955.418 368.773,-951.279 358.568,-948.433 359.02,-955.418"/>
</g>
<!-- TorcPlayer -->
<g id="node9" class="node"><title>TorcPlayer</title>
<polygon fill="none" stroke="black" points="626.5,-903 547.5,-903 547.5,-867 626.5,-867 626.5,-903"/>
<text text-anchor="middle" x="587" y="-881.3" font-family="Times,serif" font-size="14.00">TorcPlayer</text>
</g>
<!-- UIWidget&#45;&gt;TorcPlayer -->
<g id="edge8" class="edge"><title>UIWidget&#45;&gt;TorcPlayer</title>
<path fill="none" stroke="black" d="M441.358,-936.029C460.967,-928.872 485.806,-919.866 508,-912 517.624,-908.589 527.932,-904.985 537.799,-901.56"/>
<polygon fill="black" stroke="black" points="539.173,-904.789 547.477,-898.209 536.883,-898.174 539.173,-904.789"/>
</g>
<!-- VideoRenderer -->
<g id="node10" class="node"><title>VideoRenderer</title>
<polygon fill="none" stroke="black" points="638,-957 536,-957 536,-921 638,-921 638,-957"/>
<text text-anchor="middle" x="587" y="-935.3" font-family="Times,serif" font-size="14.00">VideoRenderer</text>
</g>
<!-- UIWidget&#45;&gt;VideoRenderer -->
<g id="edge9" class="edge"><title>UIWidget&#45;&gt;VideoRenderer</title>
<path fill="none" stroke="black" d="M441.133,-947.048C465.189,-945.712 497.702,-943.905 525.831,-942.343"/>
<polygon fill="black" stroke="black" points="526.182,-945.829 535.972,-941.779 525.793,-938.84 526.182,-945.829"/>
</g>
<!-- VideoColourSpace -->
<g id="node11" class="node"><title>VideoColourSpace</title>
<polygon fill="none" stroke="black" points="648.5,-1011 525.5,-1011 525.5,-975 648.5,-975 648.5,-1011"/>
<text text-anchor="middle" x="587" y="-989.3" font-family="Times,serif" font-size="14.00">VideoColourSpace</text>
</g>
<!-- UIWidget&#45;&gt;VideoColourSpace -->
<g id="edge10" class="edge"><title>UIWidget&#45;&gt;VideoColourSpace</title>
<path fill="none" stroke="black" d="M441.133,-957.588C462.268,-962.754 489.932,-969.517 515.414,-975.746"/>
<polygon fill="black" stroke="black" points="514.882,-979.218 525.427,-978.193 516.544,-972.419 514.882,-979.218"/>
</g>
<!-- TorcDemuxerThread -->
<g id="node31" class="node"><title>TorcDemuxerThread</title>
<polygon fill="none" stroke="black" points="829.5,-903 694.5,-903 694.5,-867 829.5,-867 829.5,-903"/>
<text text-anchor="middle" x="762" y="-881.3" font-family="Times,serif" font-size="14.00">TorcDemuxerThread</text>
</g>
<!-- TorcPlayer&#45;&gt;TorcDemuxerThread -->
<g id="edge30" class="edge"><title>TorcPlayer&#45;&gt;TorcDemuxerThread</title>
<path fill="none" stroke="black" d="M626.825,-885C643.869,-885 664.505,-885 684.429,-885"/>
<polygon fill="black" stroke="black" points="684.446,-888.5 694.446,-885 684.446,-881.5 684.446,-888.5"/>
</g>
<!-- TorcHTTPServer -->
<g id="node18" class="node"><title>TorcHTTPServer</title>
<polygon fill="none" stroke="black" points="462,-218 348,-218 348,-182 462,-182 462,-218"/>
<text text-anchor="middle" x="405" y="-196.3" font-family="Times,serif" font-size="14.00">TorcHTTPServer</text>
</g>
<!-- TorcAdminThread&#45;&gt;TorcHTTPServer -->
<g id="edge13" class="edge"><title>TorcAdminThread&#45;&gt;TorcHTTPServer</title>
<path fill="none" stroke="black" d="M245.846,-316.818C262.163,-293.086 293.692,-251.68 330,-227 332.858,-225.058 335.872,-223.236 338.984,-221.529"/>
<polygon fill="black" stroke="black" points="340.598,-224.635 347.966,-217.022 337.458,-218.379 340.598,-224.635"/>
</g>
<!-- TorcPower -->
<g id="node19" class="node"><title>TorcPower</title>
<polygon fill="none" stroke="black" points="444.5,-272 365.5,-272 365.5,-236 444.5,-236 444.5,-272"/>
<text text-anchor="middle" x="405" y="-250.3" font-family="Times,serif" font-size="14.00">TorcPower</text>
</g>
<!-- TorcAdminThread&#45;&gt;TorcPower -->
<g id="edge14" class="edge"><title>TorcAdminThread&#45;&gt;TorcPower</title>
<path fill="none" stroke="black" d="M263.187,-316.942C281.885,-305.788 306.894,-291.628 330,-281 338.303,-277.181 347.314,-273.516 356.097,-270.184"/>
<polygon fill="black" stroke="black" points="357.329,-273.461 365.494,-266.709 354.901,-266.895 357.329,-273.461"/>
</g>
<!-- TorcUSB -->
<g id="node20" class="node"><title>TorcUSB</title>
<polygon fill="none" stroke="black" points="440,-326 370,-326 370,-290 440,-290 440,-326"/>
<text text-anchor="middle" x="405" y="-304.3" font-family="Times,serif" font-size="14.00">TorcUSB</text>
</g>
<!-- TorcAdminThread&#45;&gt;TorcUSB -->
<g id="edge15" class="edge"><title>TorcAdminThread&#45;&gt;TorcUSB</title>
<path fill="none" stroke="black" d="M293.936,-325.481C315.589,-322.042 339.626,-318.224 359.699,-315.036"/>
<polygon fill="black" stroke="black" points="360.474,-318.457 369.801,-313.432 359.376,-311.544 360.474,-318.457"/>
</g>
<!-- TorcNetwork -->
<g id="node21" class="node"><title>TorcNetwork</title>
<polygon fill="none" stroke="black" points="451,-380 359,-380 359,-344 451,-344 451,-380"/>
<text text-anchor="middle" x="405" y="-358.3" font-family="Times,serif" font-size="14.00">TorcNetwork</text>
</g>
<!-- TorcAdminThread&#45;&gt;TorcNetwork -->
<g id="edge16" class="edge"><title>TorcAdminThread&#45;&gt;TorcNetwork</title>
<path fill="none" stroke="black" d="M293.936,-344.519C311.756,-347.349 331.19,-350.436 348.7,-353.217"/>
<polygon fill="black" stroke="black" points="348.336,-356.703 358.761,-354.815 349.434,-349.79 348.336,-356.703"/>
</g>
<!-- TorcStorage -->
<g id="node22" class="node"><title>TorcStorage</title>
<polygon fill="none" stroke="black" points="448,-434 362,-434 362,-398 448,-398 448,-434"/>
<text text-anchor="middle" x="405" y="-412.3" font-family="Times,serif" font-size="14.00">TorcStorage</text>
</g>
<!-- TorcAdminThread&#45;&gt;TorcStorage -->
<g id="edge17" class="edge"><title>TorcAdminThread&#45;&gt;TorcStorage</title>
<path fill="none" stroke="black" d="M263.187,-353.058C281.885,-364.212 306.894,-378.372 330,-389 337.076,-392.255 344.666,-395.398 352.191,-398.318"/>
<polygon fill="black" stroke="black" points="351.054,-401.629 361.645,-401.888 353.527,-395.081 351.054,-401.629"/>
</g>
<!-- TorcBonjour -->
<g id="node23" class="node"><title>TorcBonjour</title>
<polygon fill="none" stroke="black" points="449.5,-488 360.5,-488 360.5,-452 449.5,-452 449.5,-488"/>
<text text-anchor="middle" x="405" y="-466.3" font-family="Times,serif" font-size="14.00">TorcBonjour</text>
</g>
<!-- TorcAdminThread&#45;&gt;TorcBonjour -->
<g id="edge18" class="edge"><title>TorcAdminThread&#45;&gt;TorcBonjour</title>
<path fill="none" stroke="black" d="M245.846,-353.182C262.163,-376.914 293.692,-418.32 330,-443 336.441,-447.379 343.679,-451.145 351.041,-454.356"/>
<polygon fill="black" stroke="black" points="349.797,-457.628 360.38,-458.129 352.419,-451.138 349.797,-457.628"/>
</g>
<!-- TorcNetworkedContext -->
<g id="node24" class="node"><title>TorcNetworkedContext</title>
<polygon fill="none" stroke="black" points="479.5,-542 330.5,-542 330.5,-506 479.5,-506 479.5,-542"/>
<text text-anchor="middle" x="405" y="-520.3" font-family="Times,serif" font-size="14.00">TorcNetworkedContext</text>
</g>
<!-- TorcAdminThread&#45;&gt;TorcNetworkedContext -->
<g id="edge19" class="edge"><title>TorcAdminThread&#45;&gt;TorcNetworkedContext</title>
<path fill="none" stroke="black" d="M240.038,-353.054C252.007,-386.199 281.829,-457.012 330,-497 331.374,-498.141 332.801,-499.236 334.272,-500.286"/>
<polygon fill="black" stroke="black" points="332.775,-503.479 343.106,-505.829 336.496,-497.55 332.775,-503.479"/>
</g>
<!-- TorcMediaThread -->
<g id="node27" class="node"><title>TorcMediaThread</title>
<polygon fill="none" stroke="black" points="464,-135 346,-135 346,-99 464,-99 464,-135"/>
<text text-anchor="middle" x="405" y="-113.3" font-family="Times,serif" font-size="14.00">TorcMediaThread</text>
</g>
<!-- TorcAdminThread&#45;&gt;TorcMediaThread -->
<g id="edge28" class="edge"><title>TorcAdminThread&#45;&gt;TorcMediaThread</title>
<path fill="none" stroke="black" d="M241.513,-316.787C255.442,-284.548 287.74,-216.458 330,-170 339.925,-159.088 352.451,-149.088 364.361,-140.784"/>
<polygon fill="black" stroke="black" points="366.539,-143.538 372.879,-135.049 362.629,-137.731 366.539,-143.538"/>
</g>
<!-- TorcSSDPThread -->
<g id="node29" class="node"><title>TorcSSDPThread</title>
<polygon fill="none" stroke="black" points="463,-52 347,-52 347,-16 463,-16 463,-52"/>
<text text-anchor="middle" x="405" y="-30.3" font-family="Times,serif" font-size="14.00">TorcSSDPThread</text>
</g>
<!-- TorcAdminThread&#45;&gt;TorcSSDPThread -->
<g id="edge29" class="edge"><title>TorcAdminThread&#45;&gt;TorcSSDPThread</title>
<path fill="none" stroke="black" d="M237.322,-316.716C245.995,-273.062 272.73,-160.898 330,-87 338.724,-75.7429 350.477,-65.8431 362.045,-57.7402"/>
<polygon fill="black" stroke="black" points="364.02,-60.6301 370.39,-52.1638 360.131,-54.81 364.02,-60.6301"/>
</g>
<!-- TorcHTTPConnection -->
<g id="node25" class="node"><title>TorcHTTPConnection</title>
<polygon fill="none" stroke="black" points="658,-218 516,-218 516,-182 658,-182 658,-218"/>
<text text-anchor="middle" x="587" y="-196.3" font-family="Times,serif" font-size="14.00">TorcHTTPConnection</text>
</g>
<!-- TorcHTTPServer&#45;&gt;TorcHTTPConnection -->
<g id="edge34" class="edge"><title>TorcHTTPServer&#45;&gt;TorcHTTPConnection</title>
<path fill="none" stroke="black" d="M462.459,-200C476.198,-200 491.153,-200 505.761,-200"/>
<polygon fill="black" stroke="black" points="505.799,-203.5 515.799,-200 505.799,-196.5 505.799,-203.5"/>
</g>
<!-- TorcHTTPRequest -->
<g id="node26" class="node"><title>TorcHTTPRequest</title>
<polygon fill="none" stroke="black" points="823.5,-218 700.5,-218 700.5,-182 823.5,-182 823.5,-218"/>
<text text-anchor="middle" x="762" y="-196.3" font-family="Times,serif" font-size="14.00">TorcHTTPRequest</text>
</g>
<!-- TorcHTTPConnection&#45;&gt;TorcHTTPRequest -->
<g id="edge20" class="edge"><title>TorcHTTPConnection&#45;&gt;TorcHTTPRequest</title>
<path fill="none" stroke="black" d="M658.366,-200C668.928,-200 679.824,-200 690.392,-200"/>
<polygon fill="black" stroke="black" points="690.402,-203.5 700.402,-200 690.402,-196.5 690.402,-203.5"/>
</g>
<!-- DirectoryScanner -->
<g id="node28" class="node"><title>DirectoryScanner</title>
<polygon fill="none" stroke="black" points="644.5,-135 529.5,-135 529.5,-99 644.5,-99 644.5,-135"/>
<text text-anchor="middle" x="587" y="-113.3" font-family="Times,serif" font-size="14.00">DirectoryScanner</text>
</g>
<!-- TorcMediaThread&#45;&gt;DirectoryScanner -->
<g id="edge21" class="edge"><title>TorcMediaThread&#45;&gt;DirectoryScanner</title>
<path fill="none" stroke="black" d="M464.441,-117C481.942,-117 501.266,-117 519.259,-117"/>
<polygon fill="black" stroke="black" points="519.386,-120.5 529.386,-117 519.386,-113.5 519.386,-120.5"/>
</g>
<!-- TorcSSDP -->
<g id="node30" class="node"><title>TorcSSDP</title>
<polygon fill="none" stroke="black" points="625,-52 549,-52 549,-16 625,-16 625,-52"/>
<text text-anchor="middle" x="587" y="-30.3" font-family="Times,serif" font-size="14.00">TorcSSDP</text>
</g>
<!-- TorcSSDPThread&#45;&gt;TorcSSDP -->
<g id="edge22" class="edge"><title>TorcSSDPThread&#45;&gt;TorcSSDP</title>
<path fill="none" stroke="black" d="M463.448,-34C487.717,-34 515.635,-34 538.689,-34"/>
<polygon fill="black" stroke="black" points="538.909,-37.5001 548.909,-34 538.908,-30.5001 538.909,-37.5001"/>
</g>
<!-- TorcDemuxer -->
<g id="node32" class="node"><title>TorcDemuxer</title>
<polygon fill="none" stroke="black" points="961.5,-903 866.5,-903 866.5,-867 961.5,-867 961.5,-903"/>
<text text-anchor="middle" x="914" y="-881.3" font-family="Times,serif" font-size="14.00">TorcDemuxer</text>
</g>
<!-- TorcDemuxerThread&#45;&gt;TorcDemuxer -->
<g id="edge23" class="edge"><title>TorcDemuxerThread&#45;&gt;TorcDemuxer</title>
<path fill="none" stroke="black" d="M829.666,-885C838.551,-885 847.595,-885 856.29,-885"/>
<polygon fill="black" stroke="black" points="856.305,-888.5 866.305,-885 856.305,-881.5 856.305,-888.5"/>
</g>
<!-- TorcAudioThread -->
<g id="node33" class="node"><title>TorcAudioThread</title>
<polygon fill="none" stroke="black" points="1120,-986 1002,-986 1002,-950 1120,-950 1120,-986"/>
<text text-anchor="middle" x="1061" y="-964.3" font-family="Times,serif" font-size="14.00">TorcAudioThread</text>
</g>
<!-- TorcDemuxer&#45;&gt;TorcAudioThread -->
<g id="edge31" class="edge"><title>TorcDemuxer&#45;&gt;TorcAudioThread</title>
<path fill="none" stroke="black" d="M937.815,-903.026C952.266,-913.955 971.633,-927.725 990,-938 994.76,-940.663 999.803,-943.246 1004.92,-945.707"/>
<polygon fill="black" stroke="black" points="1003.6,-948.955 1014.14,-949.994 1006.55,-942.607 1003.6,-948.955"/>
</g>
<!-- TorcVideoThread -->
<g id="node36" class="node"><title>TorcVideoThread</title>
<polygon fill="none" stroke="black" points="1119.5,-903 1002.5,-903 1002.5,-867 1119.5,-867 1119.5,-903"/>
<text text-anchor="middle" x="1061" y="-881.3" font-family="Times,serif" font-size="14.00">TorcVideoThread</text>
</g>
<!-- TorcDemuxer&#45;&gt;TorcVideoThread -->
<g id="edge32" class="edge"><title>TorcDemuxer&#45;&gt;TorcVideoThread</title>
<path fill="none" stroke="black" d="M961.677,-885C971.425,-885 981.89,-885 992.227,-885"/>
<polygon fill="black" stroke="black" points="992.489,-888.5 1002.49,-885 992.489,-881.5 992.489,-888.5"/>
</g>
<!-- TorcSubtitleThread -->
<g id="node38" class="node"><title>TorcSubtitleThread</title>
<polygon fill="none" stroke="black" points="1124,-820 998,-820 998,-784 1124,-784 1124,-820"/>
<text text-anchor="middle" x="1061" y="-798.3" font-family="Times,serif" font-size="14.00">TorcSubtitleThread</text>
</g>
<!-- TorcDemuxer&#45;&gt;TorcSubtitleThread -->
<g id="edge33" class="edge"><title>TorcDemuxer&#45;&gt;TorcSubtitleThread</title>
<path fill="none" stroke="black" d="M946.463,-866.99C967.861,-854.742 996.369,-838.423 1019.47,-825.202"/>
<polygon fill="black" stroke="black" points="1021.41,-828.123 1028.35,-820.118 1017.93,-822.048 1021.41,-828.123"/>
</g>
<!-- AudioWrapper -->
<g id="node34" class="node"><title>AudioWrapper</title>
<polygon fill="none" stroke="black" points="1260,-986 1160,-986 1160,-950 1260,-950 1260,-986"/>
<text text-anchor="middle" x="1210" y="-964.3" font-family="Times,serif" font-size="14.00">AudioWrapper</text>
</g>
<!-- TorcAudioThread&#45;&gt;AudioWrapper -->
<g id="edge24" class="edge"><title>TorcAudioThread&#45;&gt;AudioWrapper</title>
<path fill="none" stroke="black" d="M1120.1,-968C1129.87,-968 1140.01,-968 1149.81,-968"/>
<polygon fill="black" stroke="black" points="1149.86,-971.5 1159.86,-968 1149.86,-964.5 1149.86,-971.5"/>
</g>
<!-- AudioOutput -->
<g id="node35" class="node"><title>AudioOutput</title>
<polygon fill="none" stroke="black" points="1386,-986 1296,-986 1296,-950 1386,-950 1386,-986"/>
<text text-anchor="middle" x="1341" y="-964.3" font-family="Times,serif" font-size="14.00">AudioOutput</text>
</g>
<!-- AudioWrapper&#45;&gt;AudioOutput -->
<g id="edge25" class="edge"><title>AudioWrapper&#45;&gt;AudioOutput</title>
<path fill="none" stroke="black" d="M1260.14,-968C1268.44,-968 1277.1,-968 1285.53,-968"/>
<polygon fill="black" stroke="black" points="1285.65,-971.5 1295.65,-968 1285.65,-964.5 1285.65,-971.5"/>
</g>
<!-- VideoBuffers -->
<g id="node37" class="node"><title>VideoBuffers</title>
<polygon fill="none" stroke="black" points="1256.5,-903 1163.5,-903 1163.5,-867 1256.5,-867 1256.5,-903"/>
<text text-anchor="middle" x="1210" y="-881.3" font-family="Times,serif" font-size="14.00">VideoBuffers</text>
</g>
<!-- TorcVideoThread&#45;&gt;VideoBuffers -->
<g id="edge26" class="edge"><title>TorcVideoThread&#45;&gt;VideoBuffers</title>
<path fill="none" stroke="black" d="M1119.68,-885C1130.65,-885 1142.11,-885 1153.03,-885"/>
<polygon fill="black" stroke="black" points="1153.3,-888.5 1163.3,-885 1153.3,-881.5 1153.3,-888.5"/>
</g>
</g>
</svg>
